# Blender v2.83.1 OBJ File: ''
# www.blender.org
mtllib logotest.mtl
o Cube.003_Cube.007
v -2.867360 -3.015418 -1.026325
v -1.026327 -3.015418 -2.867360
v -2.867361 3.015416 -2.867360
v -1.026324 0.000000 2.867360
v -1.026324 -3.015417 1.026327
v -2.867361 -3.015417 -2.867359
v -2.867359 0.000000 1.026327
v -1.026326 3.015418 1.026325
v -1.026326 -3.015417 2.867361
v -2.867361 -3.015417 1.026326
v -2.867361 3.015417 2.867359
v 1.026325 -3.015417 2.867360
v 2.867359 -3.015417 2.867360
v 1.026326 0.000000 2.867360
v -2.867360 3.015417 1.026325
v -2.867361 -3.015416 2.867360
v -1.026326 3.015417 2.867359
v 2.867359 0.000000 2.867360
v -2.867361 0.000000 2.867359
v -1.026325 0.000000 1.026325
v 1.026326 3.015418 1.026325
v 1.026326 -3.015417 1.026326
v 2.867361 -3.015417 1.026326
v 2.867360 3.015417 2.867359
v 2.867360 -3.015418 -1.026325
v 1.026325 -3.015418 -1.026328
v 2.867360 -0.000000 -1.026327
v 1.026326 3.015417 2.867358
v 2.867360 3.015417 1.026325
v 2.867360 0.000000 1.026325
v 1.026326 -0.000000 -1.026327
v 1.026326 0.000000 1.026324
v 1.026326 3.015417 -1.026327
v 1.026326 -3.015418 -2.867361
v 2.867360 3.015416 -2.867362
v -1.026327 3.015418 -1.026328
v -2.867361 3.015417 -1.026327
v -1.026327 -3.015418 -1.026325
v -1.026326 3.015416 -2.867362
v -1.026327 -0.000000 -2.867360
v 2.867360 3.015416 -1.026327
v 2.867360 -3.015417 -2.867361
v 1.026326 3.015416 -2.867361
v -2.867360 -0.000000 -2.867360
v 2.867360 -0.000000 -2.867361
v -2.867360 -0.000000 -1.026326
v 1.026326 -0.000000 -2.867361
v -1.026326 -0.000000 -1.026326
vt 0.125000 0.750000
vt 0.125000 0.500000
vt 0.238281 0.500000
vt 0.238281 0.750000
vt 0.511719 0.750000
vt 0.449768 0.500000
vt 0.625000 0.500000
vt 0.625000 0.750000
vt 0.511719 0.750000
vt 0.449768 0.500000
vt 0.625000 0.500000
vt 0.625000 0.750000
vt 0.261719 0.750000
vt 0.761719 0.750000
vt 0.875000 0.750000
vt 0.625000 0.250000
vt 0.436951 0.500000
vt 0.488281 0.750000
vt 0.375000 0.750000
vt 0.375000 0.500000
vt 0.238281 0.500000
vt 0.238281 0.750000
vt 0.125000 0.750000
vt 0.125000 0.500000
vt 0.436951 0.500000
vt 0.488281 0.750000
vt 0.375000 0.750000
vt 0.375000 0.500000
vt 0.875000 0.750000
vt 0.261719 0.500000
vt 0.875000 0.750000
vt 0.761719 0.750000
vt 0.511719 0.250000
vt 0.625000 0.250000
vt 0.511719 0.250000
vt 0.625000 0.250000
vt 0.511719 0.500000
vt 0.449768 0.500000
vt 0.488281 0.250000
vt 0.436951 0.500000
vt 0.375000 0.500000
vt 0.375000 0.250000
vt 0.125000 0.750000
vt 0.125000 0.500000
vt 0.238281 0.500000
vt 0.238281 0.750000
vt 0.511719 0.750000
vt 0.449768 0.500000
vt 0.625000 0.500000
vt 0.625000 0.750000
vt 0.261719 0.750000
vt 0.761719 0.750000
vt 0.875000 0.750000
vt 0.625000 0.250000
vt 0.238281 0.500000
vt 0.238281 0.750000
vt 0.125000 0.750000
vt 0.125000 0.500000
vt 0.436951 0.500000
vt 0.488281 0.750000
vt 0.375000 0.750000
vt 0.375000 0.500000
vt 0.875000 0.750000
vt 0.261719 0.500000
vt 0.875000 0.750000
vt 0.761719 0.750000
vt 0.511719 0.250000
vt 0.625000 0.250000
vt 0.511719 0.250000
vt 0.625000 0.250000
vt 0.875000 0.500000
vt 0.875000 0.750000
vt 0.761719 0.500000
vt 0.261719 0.500000
vt 0.511719 0.250000
vt 0.625000 0.250000
vt 0.511719 0.250000
vt 0.511719 0.500000
vt 0.511719 0.500000
vt 0.488281 0.250000
vt 0.375000 0.250000
vt 0.488281 0.250000
vt 0.375000 0.250000
vt 0.511719 0.750000
vt 0.625000 0.500000
vt 0.625000 0.750000
vt 0.375000 0.000000
vt 0.238281 0.750000
vt 0.125000 0.750000
vt 0.125000 0.500000
vt 0.488281 0.750000
vt 0.375000 0.750000
vt 0.875000 0.500000
vt 0.875000 0.750000
vt 0.761719 0.500000
vt 0.261719 0.500000
vt 0.511719 0.250000
vt 0.625000 0.250000
vt 0.511719 0.250000
vt 0.511719 0.500000
vt 0.488281 0.250000
vt 0.375000 0.250000
vt 0.375000 0.000000
vt 0.238281 0.750000
vt 0.125000 0.750000
vt 0.125000 0.500000
vt 0.375000 0.000000
vt 0.625000 0.000000
vt 0.625000 0.250000
vt 0.375000 0.250000
vt 0.625000 0.750000
vt 0.625000 1.000000
vt 0.375000 1.000000
vt 0.375000 0.000000
vt 0.625000 0.000000
vt 0.625000 0.250000
vt 0.375000 0.250000
vt 0.375000 0.000000
vt 0.625000 0.000000
vt 0.625000 0.250000
vt 0.375000 0.250000
vt 0.625000 0.000000
vt 0.625000 0.250000
vt 0.375000 0.250000
vt 0.375000 0.000000
vt 0.625000 0.000000
vt 0.625000 0.250000
vt 0.375000 0.250000
vt 0.375000 0.000000
vt 0.625000 0.000000
vt 0.625000 0.250000
vt 0.375000 0.250000
vt 0.375000 0.000000
vt 0.625000 0.000000
vt 0.625000 0.250000
vt 0.375000 0.250000
vt 0.261719 0.750000
vt 0.261719 0.750000
vn 0.0000 0.0000 1.0000
vn -0.0000 -0.0000 -1.0000
vn 0.0000 0.5627 0.8266
vn 0.0000 0.5627 -0.8267
vn 1.0000 -0.0000 0.0000
vn -1.0000 -0.0000 0.0000
vn -0.8267 -0.5627 0.0000
vn 0.8266 -0.5627 0.0000
vn -0.0000 1.0000 -0.0000
vn -0.0000 -1.0000 -0.0000
vn 0.0000 -0.5627 -0.8266
vn 0.8267 0.5627 -0.0000
vn -0.0000 -0.5627 0.8267
vn -0.8267 0.5627 0.0000
usemtl N64_Green
s 1
f 1/1/1 38/2/1 48/3/1 46/4/1
f 40/5/2 44/6/2 3/7/2 39/8/2
f 4/9/1 19/10/1 16/11/1 9/12/1
f 7/13/3 20/14/3 36/15/3 37/16/3
f 44/17/2 40/18/2 2/19/2 6/20/2
f 20/21/2 7/22/2 15/23/2 8/24/2
f 19/25/1 4/26/1 17/27/1 11/28/1
f 22/29/2 20/30/2 8/31/2 32/32/2
f 4/33/1 12/34/1 14/35/1 17/36/1
f 13/37/1 18/38/1 14/35/1 12/34/1
f 14/39/1 18/40/1 24/41/1 28/42/1
f 23/43/2 22/44/2 32/45/2 30/46/2
f 47/47/2 45/48/2 42/49/2 34/50/2
f 27/51/4 31/52/4 21/53/4 29/54/4
f 31/55/1 27/56/1 41/57/1 33/58/1
f 45/59/2 47/60/2 43/61/2 35/62/2
f 38/63/1 31/64/1 33/65/1 48/66/1
f 47/67/2 2/68/2 40/69/2 43/70/2
usemtl N64_Blue
f 9/71/5 5/72/5 20/14/5 4/73/5
f 5/72/5 48/74/5 36/15/5 20/14/5
f 46/75/6 10/76/6 7/77/6 37/16/6
f 3/78/6 44/6/6 46/75/6 37/16/6
f 16/79/6 19/10/6 7/77/6 10/76/6
f 7/80/6 19/25/6 11/28/6 15/81/6
f 46/82/6 44/17/6 6/20/6 1/83/6
f 30/84/5 18/38/5 13/85/5 23/86/5
f 4/33/7 20/30/7 22/87/7 12/34/7
f 32/45/6 14/88/6 28/89/6 21/90/6
f 18/40/5 30/91/5 29/92/5 24/41/5
f 34/93/6 26/94/6 31/52/6 47/95/6
f 26/94/6 32/96/6 21/53/6 31/52/6
f 30/97/5 25/98/5 27/99/5 29/54/5
f 42/100/5 45/48/5 27/99/5 25/98/5
f 27/101/5 45/59/5 35/62/5 41/102/5
f 47/67/8 31/64/8 38/103/8 2/68/8
f 48/3/5 40/104/5 39/105/5 36/106/5
usemtl N64_Yellow
f 36/107/9 39/108/9 3/109/9 37/110/9
f 2/19/10 38/111/10 1/112/10 6/113/10
f 5/114/10 9/115/10 16/116/10 10/117/10
f 8/118/9 15/119/9 11/120/9 17/121/9
f 22/87/10 23/122/10 13/123/10 12/124/10
f 21/125/9 28/126/9 24/127/9 29/128/9
f 26/129/10 34/130/10 42/131/10 25/132/10
f 33/133/9 41/134/9 35/135/9 43/136/9
usemtl N64_Red
f 46/75/11 48/74/11 5/114/11 10/76/11
f 14/137/12 32/32/12 8/31/12 17/36/12
f 30/97/13 32/96/13 26/129/13 25/98/13
f 40/138/14 48/66/14 33/65/14 43/70/14
